<svg width="49" height="51" viewBox="0 0 49 51" fill="none" xmlns="http://www.w3.org/2000/svg">
<path d="M8.89707 47.418C7.37037 47.418 6.60703 46.6001 6.60703 44.9644V2.9585C6.60703 1.32275 7.37037 0.504883 8.89707 0.504883H20.3145C30.3471 0.504883 37.13 2.5332 40.6632 6.58984C44.2182 10.6465 45.9957 16.4152 45.9957 23.896C45.9957 31.3768 44.2182 37.1673 40.6632 41.2676C37.13 45.3678 30.3471 47.418 20.3145 47.418H8.89707ZM16.1598 39.3047H19.693C26.454 39.3047 30.8269 38.0506 32.8116 35.5425C34.7963 33.0125 35.7887 29.1304 35.7887 23.896C35.7887 18.6616 34.7963 14.8013 32.8116 12.3149C30.8269 9.8068 26.454 8.55273 19.693 8.55273H16.1598V39.3047Z" fill="white"/>
<path d="M7.22434 47C5.69764 47 4.9343 46.1821 4.9343 44.5464V2.54053C4.9343 0.904785 5.69764 0.0869141 7.22434 0.0869141H18.6418C28.6744 0.0869141 35.4572 2.11523 38.9904 6.17188C42.5455 10.2285 44.323 15.9972 44.323 23.478C44.323 30.9588 42.5455 36.7493 38.9904 40.8496C35.4572 44.9499 28.6744 47 18.6418 47H7.22434ZM14.487 38.8867H18.0202C24.7813 38.8867 29.1542 37.6326 31.1389 35.1245C33.1236 32.5946 34.1159 28.7124 34.1159 23.478C34.1159 18.2437 33.1236 14.3833 31.1389 11.897C29.1542 9.38883 24.7813 8.13477 18.0202 8.13477H14.487V38.8867Z" fill="#0043C5"/>
</svg>
