<svg width="339" height="50" viewBox="0 0 339 50" fill="none" xmlns="http://www.w3.org/2000/svg">
<path d="M2.31787 49C1.22738 49 0.682129 48.4002 0.682129 47.2007V3.88623C0.682129 2.68669 1.22738 2.08691 2.31787 2.08691H14.3896C23.637 2.08691 30.0601 4.13704 33.6587 8.2373C37.2791 12.3158 39.0894 18.0627 39.0894 25.478C39.0894 32.8934 37.2791 38.673 33.6587 42.8169C30.0601 46.939 23.637 49 14.3896 49H2.31787ZM6.96338 43.6348H14.0952C21.2925 43.6348 26.1343 42.1081 28.6206 39.0547C31.1287 36.0013 32.3828 31.4757 32.3828 25.478C32.3828 19.4803 31.1287 14.9657 28.6206 11.9341C26.1343 8.90251 21.2925 7.38672 14.0952 7.38672H6.96338V43.6348ZM44.8799 31.8247C44.8799 26.6994 46.2321 22.4683 48.9365 19.1313C51.6628 15.7726 55.6431 14.0933 60.8774 14.0933C66.1118 14.0933 70.0812 15.7726 72.7856 19.1313C75.5119 22.4683 76.875 26.6994 76.875 31.8247C76.875 36.95 75.5119 41.1921 72.7856 44.5508C70.0812 47.8877 66.1118 49.5562 60.8774 49.5562C55.6431 49.5562 51.6628 47.8877 48.9365 44.5508C46.2321 41.1921 44.8799 36.95 44.8799 31.8247ZM50.9648 31.8247C50.9648 36.4048 51.87 39.7962 53.6802 41.999C55.4904 44.2018 57.8895 45.3032 60.8774 45.3032C63.8654 45.3032 66.2645 44.2018 68.0747 41.999C69.8849 39.7962 70.79 36.4048 70.79 31.8247C70.79 27.2446 69.8849 23.8532 68.0747 21.6504C66.2645 19.4476 63.8654 18.3462 60.8774 18.3462C57.8895 18.3462 55.4904 19.4476 53.6802 21.6504C51.87 23.8532 50.9648 27.2446 50.9648 31.8247ZM85.7734 49C84.792 49 84.3013 48.5093 84.3013 47.5278V16.1216C84.3013 15.1401 84.792 14.6494 85.7734 14.6494H88.5215C89.5029 14.6494 89.9937 15.1401 89.9937 16.1216V20.0474H90.1245C91.1714 18.0845 92.4036 16.6014 93.8213 15.5981C95.2389 14.5949 97.0055 14.0933 99.1211 14.0933C100.517 14.0933 101.498 14.2132 102.065 14.4531C102.567 14.6494 102.752 14.9766 102.622 15.4346L101.869 18.1172C101.76 18.5098 101.477 18.6624 101.019 18.5752C100.255 18.4225 99.5355 18.3462 98.8594 18.3462C96.3076 18.3462 94.203 19.5021 92.5454 21.814C90.8879 24.104 90.0591 27.2337 90.0591 31.2031V47.5278C90.0591 48.5093 89.5684 49 88.5869 49H85.7734ZM109.394 49C108.412 49 107.921 48.5093 107.921 47.5278V16.1216C107.921 15.1401 108.412 14.6494 109.394 14.6494H112.207C113.188 14.6494 113.679 15.1401 113.679 16.1216V47.5278C113.679 48.5093 113.188 49 112.207 49H109.394ZM109.394 8.43359C108.412 8.43359 107.921 7.94287 107.921 6.96143V4.14795C107.921 3.1665 108.412 2.67578 109.394 2.67578H112.207C113.188 2.67578 113.679 3.1665 113.679 4.14795V6.96143C113.679 7.94287 113.188 8.43359 112.207 8.43359H109.394ZM121.105 39.8398C121.105 35.9577 122.916 33.1115 126.536 31.3013C130.178 29.491 135.609 28.4333 142.828 28.1279V25.9033C142.828 23.8532 142.359 22.0866 141.421 20.6035C140.505 19.0986 138.673 18.3462 135.925 18.3462C134.181 18.3462 132.785 18.5207 131.738 18.8696C130.691 19.1968 129.731 19.6439 128.859 20.2109C128.008 20.7562 127.19 21.465 126.405 22.3374C125.816 22.9917 125.26 23.0244 124.737 22.4355L123.036 20.4727C122.556 19.9274 122.719 19.2731 123.526 18.5098C124.682 17.4193 125.806 16.6014 126.896 16.0562C127.986 15.5109 129.339 15.0529 130.953 14.6821C132.588 14.2896 134.246 14.0933 135.925 14.0933C140.484 14.0933 143.733 15.271 145.674 17.6265C147.615 19.9601 148.586 23.1662 148.586 27.2446V47.5278C148.586 48.5093 148.095 49 147.114 49H144.169C143.319 49 142.894 48.5093 142.894 47.5278V45.9248H142.828C141.105 47.277 139.415 48.2257 137.757 48.771C136.122 49.2944 134.29 49.5562 132.261 49.5562C128.684 49.5562 125.925 48.7056 123.984 47.0044C122.065 45.2814 121.105 42.8932 121.105 39.8398ZM127.06 39.9707C127.06 41.3229 127.343 42.4134 127.91 43.2422C128.477 44.0492 129.262 44.5726 130.266 44.8125C131.269 45.0306 132.316 45.1396 133.406 45.1396C135.086 45.1396 136.678 44.9761 138.183 44.6489C139.688 44.3218 141.236 43.4603 142.828 42.0645V32.4136C138.423 32.7407 135.282 33.1442 133.406 33.624C131.531 34.082 130.004 34.889 128.826 36.0449C127.648 37.179 127.06 38.4876 127.06 39.9707ZM159.382 49C158.4 49 157.91 48.5093 157.91 47.5278V16.1216C157.91 15.1401 158.4 14.6494 159.382 14.6494H162.13C163.111 14.6494 163.602 15.1401 163.602 16.1216V18.7388H163.733C165.151 17.1685 166.677 16.0016 168.313 15.2383C169.949 14.4749 171.988 14.0933 174.431 14.0933C178.4 14.0933 181.246 15.2165 182.969 17.4629C184.714 19.6875 185.586 22.7409 185.586 26.623V47.5278C185.586 48.5093 185.096 49 184.114 49H181.301C180.319 49 179.829 48.5093 179.829 47.5278V28.1934C179.829 23.9186 179.12 21.2142 177.702 20.0801C176.285 18.9242 174.485 18.3462 172.304 18.3462C169.469 18.3462 167.321 19.1968 165.859 20.8979C164.398 22.5773 163.667 25.4671 163.667 29.5674V47.5278C163.667 48.5093 163.177 49 162.195 49H159.382ZM198.149 49C197.167 49 196.677 48.5093 196.677 47.5278V43.5366C196.677 42.5552 197.167 42.0645 198.149 42.0645H201.813C202.794 42.0645 203.285 42.5552 203.285 43.5366V47.5278C203.285 48.5093 202.794 49 201.813 49H198.149ZM215.913 49C214.932 49 214.441 48.5093 214.441 47.5278V16.1216C214.441 15.1401 214.932 14.6494 215.913 14.6494H218.661C219.643 14.6494 220.133 15.1401 220.133 16.1216V18.7388H220.264C221.682 17.1685 223.208 16.0016 224.844 15.2383C226.48 14.4749 228.519 14.0933 230.962 14.0933C234.931 14.0933 237.778 15.2165 239.5 17.4629C241.245 19.6875 242.118 22.7409 242.118 26.623V47.5278C242.118 48.5093 241.627 49 240.646 49H237.832C236.851 49 236.36 48.5093 236.36 47.5278V28.1934C236.36 23.9186 235.651 21.2142 234.233 20.0801C232.816 18.9242 231.016 18.3462 228.835 18.3462C226 18.3462 223.852 19.1968 222.391 20.8979C220.929 22.5773 220.199 25.4671 220.199 29.5674V47.5278C220.199 48.5093 219.708 49 218.727 49H215.913ZM249.479 31.8247C249.479 26.4159 250.831 22.1084 253.535 18.9023C256.24 15.6963 260.111 14.0933 265.149 14.0933C269.336 14.0933 272.804 15.5654 275.552 18.5098C278.322 21.4323 279.707 26.1105 279.707 32.5444C279.707 33.5259 279.26 34.0166 278.366 34.0166H255.563C255.934 38.2259 257.068 41.1593 258.966 42.8169C260.863 44.4526 263.012 45.2705 265.411 45.2705C267.941 45.2705 269.882 44.8452 271.234 43.9946C272.586 43.144 273.578 42.3044 274.211 41.4756C274.909 40.5596 275.585 40.3851 276.239 40.9521L278.169 42.6206C278.671 43.0568 278.671 43.6566 278.169 44.4199C277.755 45.0524 276.566 46.0666 274.604 47.4624C272.662 48.8582 269.598 49.5562 265.411 49.5562C259.958 49.5562 255.934 47.9531 253.339 44.7471C250.765 41.541 249.479 37.2336 249.479 31.8247ZM255.433 29.7637H273.917C273.829 26.7103 273.044 24.0386 271.561 21.7485C270.078 19.4367 267.897 18.2808 265.018 18.2808C262.488 18.2808 260.34 19.1313 258.573 20.8325C256.807 22.5119 255.76 25.4889 255.433 29.7637ZM288.736 49C287.755 49 287.264 48.5093 287.264 47.5278V16.1216C287.264 15.1401 287.755 14.6494 288.736 14.6494H291.484C292.466 14.6494 292.957 15.1401 292.957 16.1216V20.0474H293.087C294.134 18.0845 295.367 16.6014 296.784 15.5981C298.202 14.5949 299.968 14.0933 302.084 14.0933C303.48 14.0933 304.461 14.2132 305.028 14.4531C305.53 14.6494 305.715 14.9766 305.584 15.4346L304.832 18.1172C304.723 18.5098 304.439 18.6624 303.981 18.5752C303.218 18.4225 302.498 18.3462 301.822 18.3462C299.271 18.3462 297.166 19.5021 295.508 21.814C293.851 24.104 293.022 27.2337 293.022 31.2031V47.5278C293.022 48.5093 292.531 49 291.55 49H288.736ZM309.02 31.8247C309.02 27.1356 310.154 23.0135 312.422 19.4585C314.69 15.8817 318.005 14.0933 322.367 14.0933C324.875 14.0933 326.882 14.5076 328.387 15.3364C329.892 16.1652 331.244 17.2993 332.443 18.7388H332.509C332.465 18.0845 332.443 17.4193 332.443 16.7432V2.18506C332.443 1.20361 332.934 0.712891 333.916 0.712891H336.729C337.71 0.712891 338.201 1.20361 338.201 2.18506V47.5278C338.201 48.5093 337.71 49 336.729 49H333.981C333.196 49 332.771 48.5093 332.705 47.5278L332.509 44.9106H332.443C331.244 46.3501 329.892 47.4842 328.387 48.313C326.882 49.1418 324.875 49.5562 322.367 49.5562C318.005 49.5562 314.69 47.7786 312.422 44.2236C310.154 40.6468 309.02 36.5138 309.02 31.8247ZM315.104 31.8247C315.104 35.8377 315.792 39.0874 317.166 41.5737C318.561 44.0601 320.917 45.3032 324.232 45.3032C326.587 45.3032 328.539 44.5072 330.088 42.915C331.658 41.3011 332.443 38.8584 332.443 35.5869V28.0625C332.443 24.791 331.658 22.3592 330.088 20.7671C328.539 19.1532 326.587 18.3462 324.232 18.3462C320.917 18.3462 318.561 19.5894 317.166 22.0757C315.792 24.562 315.104 27.8117 315.104 31.8247Z" fill="white"/>
</svg>
